<svg version="1.1" id="Layer_1" xmlns="http://www.w3.org/2000/svg" xmlns:xlink="http://www.w3.org/1999/xlink" x="0px" y="0px"
	 width="100%" viewBox="0 0 98 98" enable-background="new 0 0 98 98" xml:space="preserve">
<path fill="#046B8B" opacity="1.000000" stroke="none" 
	d="
M35.000000,1.000000 
	C44.687561,1.000000 54.375122,1.000000 64.681076,1.359858 
	C80.325150,5.091223 94.462822,9.646519 99.000000,27.000000 
	C99.000000,27.444445 99.000000,27.888889 98.651505,28.788757 
	C96.642059,36.713196 92.127151,42.093395 85.515480,45.520908 
	C62.224339,57.595127 38.711506,57.487469 15.492783,45.560753 
	C8.941921,42.195786 3.535922,36.894093 2.898490,28.739662 
	C2.142825,19.072718 8.076171,13.210133 15.623865,9.120010 
	C21.750257,5.800097 28.517164,3.662153 35.000000,1.000000 
M24.905823,30.392397 
	C26.420269,32.319534 27.597235,34.711178 29.504860,36.097145 
	C40.493401,44.080772 60.245216,44.048012 71.398842,36.275780 
	C77.844833,31.784002 78.368172,23.879747 72.540497,19.032906 
	C61.834808,10.129050 37.953556,10.514837 27.821960,19.924253 
	C25.108780,22.444040 23.075848,25.553621 24.905823,30.392397 
z"/>
<path fill="#036B8A" opacity="1.000000" stroke="none" 
	d="
M99.000000,73.000000 
	C99.000000,73.444443 99.000000,73.888893 98.653069,74.793594 
	C96.575539,82.650635 92.376801,88.191772 85.514778,91.435143 
	C79.768410,94.151169 73.845016,96.492668 68.000000,99.000000 
	C56.312439,99.000000 44.624878,99.000000 32.348591,98.649948 
	C30.339945,97.855087 28.906263,97.449646 27.502359,96.958992 
	C19.095404,94.020821 11.117591,90.447258 5.761118,82.789413 
	C1.584656,76.818565 1.703112,69.706978 5.830452,64.569794 
	C35.807552,84.079315 65.456711,84.004242 95.702133,64.296288 
	C96.760719,67.090103 97.880363,70.045052 99.000000,73.000000 
z"/>
<path fill="#046B8B" opacity="1.000000" stroke="none" 
	d="
M99.000000,48.000000 
	C99.000000,48.750000 99.000000,49.500000 98.654495,50.741196 
	C96.267082,60.143845 89.973022,65.393860 82.280380,69.085922 
	C66.780403,76.525093 50.520958,77.477722 33.813877,74.186058 
	C25.028362,72.455124 17.013853,69.189217 10.116089,63.405659 
	C3.603475,57.945030 -0.097596,48.306683 5.171703,41.509472 
	C27.942766,63.125927 76.215050,61.340809 96.000938,41.015808 
	C97.029236,43.410503 98.014618,45.705250 99.000000,48.000000 
z"/>
<path fill="#F1F7F9" opacity="1.000000" stroke="none" 
	d="
M99.000000,47.531731 
	C98.014618,45.705250 97.029236,43.410503 96.000938,41.015808 
	C76.215050,61.340809 27.942766,63.125927 5.171703,41.509472 
	C-0.097596,48.306683 3.603475,57.945030 10.116089,63.405659 
	C17.013853,69.189217 25.028362,72.455124 33.813877,74.186058 
	C50.520958,77.477722 66.780403,76.525093 82.280380,69.085922 
	C89.973022,65.393860 96.267082,60.143845 98.654495,51.116196 
	C99.000000,58.020947 99.000000,65.041893 99.000000,72.531418 
	C97.880363,70.045052 96.760719,67.090103 95.702133,64.296288 
	C65.456711,84.004242 35.807552,84.079315 5.830452,64.569794 
	C1.703112,69.706978 1.584656,76.818565 5.761118,82.789413 
	C11.117591,90.447258 19.095404,94.020821 27.502359,96.958992 
	C28.906263,97.449646 30.339945,97.855087 31.879932,98.649948 
	C21.694471,99.000000 11.388943,99.000000 1.041707,99.000000 
	C1.041707,66.449081 1.041707,33.898098 1.041707,1.000000 
	C12.018465,1.000000 23.040573,1.000000 34.531342,1.000000 
	C28.517164,3.662153 21.750257,5.800097 15.623865,9.120010 
	C8.076171,13.210133 2.142825,19.072718 2.898490,28.739662 
	C3.535922,36.894093 8.941921,42.195786 15.492783,45.560753 
	C38.711506,57.487469 62.224339,57.595127 85.515480,45.520908 
	C92.127151,42.093395 96.642059,36.713196 98.651505,29.122089 
	C99.000000,35.021152 99.000000,41.042305 99.000000,47.531731 
z"/>
<path fill="#FAFCFC" opacity="1.000000" stroke="none" 
	d="
M99.000000,26.531334 
	C94.462822,9.646519 80.325150,5.091223 65.149734,1.359858 
	C76.250031,1.000000 87.500061,1.000000 99.000000,1.000000 
	C99.000000,9.352566 99.000000,17.707617 99.000000,26.531334 
z"/>
<path fill="#F9FBFC" opacity="1.000000" stroke="none" 
	d="
M68.468658,99.000000 
	C73.845016,96.492668 79.768410,94.151169 85.514778,91.435143 
	C92.376801,88.191772 96.575539,82.650635 98.653069,75.126930 
	C99.000000,82.935806 99.000000,90.871613 99.000000,99.000000 
	C88.979927,99.000000 78.958618,99.000000 68.468658,99.000000 
z"/>
<path fill="#FCFDFE" opacity="1.000000" stroke="none" 
	d="
M24.829834,30.016457 
	C23.075848,25.553621 25.108780,22.444040 27.821960,19.924253 
	C37.953556,10.514837 61.834808,10.129050 72.540497,19.032906 
	C78.368172,23.879747 77.844833,31.784002 71.398842,36.275780 
	C60.245216,44.048012 40.493401,44.080772 29.504860,36.097145 
	C27.597235,34.711178 26.420269,32.319534 24.829834,30.016457 
z"/>
</svg>